<?xml version="1.0" encoding="utf-8"?>
<!-- Generator: Adobe Illustrator 24.2.3, SVG Export Plug-In . SVG Version: 6.00 Build 0)  -->
<svg version="1.1" id="Capa_1" xmlns="http://www.w3.org/2000/svg" xmlns:xlink="http://www.w3.org/1999/xlink" x="0px" y="0px"
	 viewBox="0 0 132 132" style="enable-background:new 0 0 132 132;" xml:space="preserve">
<style type="text/css">
	.st0{fill:#F2A287;}
	.st1{fill:#B0D1C9;}
	.st2{opacity:0.42;fill:#A9CDC6;enable-background:new    ;}
	.st3{fill:#FFFFFF;}
</style>
<g id="Pasos">
	<rect class="st0" width="132" height="132"/>
	<path class="st1" d="M46.9,8.7h32.8c5.1,0,9.2,4.1,9.2,9.2v78.4c0,5.1-4.1,9.2-9.2,9.2H46.9c-5.1,0-9.2-4.1-9.2-9.2V17.9
		C37.8,12.8,41.9,8.7,46.9,8.7z"/>
	<path class="st2" d="M12.1,15.4h25.3c5.1,0,9.2,4.1,9.2,9.2v64c0,5.1-4.1,9.2-9.2,9.2H12.1c-5.1,0-9.2-4.1-9.2-9.2v-64
		C2.9,19.6,7,15.4,12.1,15.4z"/>
	<path class="st2" d="M87.9,15.4h25.3c5.1,0,9.2,4.1,9.2,9.2v64c0,5.1-4.1,9.2-9.2,9.2H87.9c-5.1,0-9.2-4.1-9.2-9.2v-64
		C78.8,19.6,82.9,15.4,87.9,15.4z"/>
	<path class="st3" d="M52.5,89.5c4.9-6.2,8.6-13.3,10.8-20.9L61.2,68c-0.9,4.3,0.2,8.8,3,12.3c2.7,3.6,6.5,6.2,10.2,8.7
		c1.2,0.8,2.3-1.1,1.1-1.9c-6-4-14.2-10-12.2-18.4c0.1-0.6-0.3-1.2-0.9-1.3c-0.5-0.1-1.1,0.2-1.3,0.7c-2.1,7.2-5.6,14-10.3,19.9
		C50,89.1,51.6,90.7,52.5,89.5z"/>
	<path class="st3" d="M54,89.4c1.9-2,4.6-3.2,6.5-5.3s2.9-5,1.6-7.6c-0.7-1.3-2.6-0.2-2,1.1c1,1.9-0.5,4.2-1.8,5.5
		c-1.8,1.7-4.1,2.8-5.9,4.7C51.4,88.9,53,90.5,54,89.4z"/>
	<path class="st3" d="M75.8,87.6C71,82,67.1,75.7,64.3,68.9c-0.5-1.3-2.7-0.7-2.2,0.6c3,7.2,7.1,13.8,12.2,19.7
		C75.2,90.3,76.8,88.7,75.8,87.6z"/>
	<path class="st3" d="M51.3,90.7c0.6-0.1,1.1-0.6,1-1.2c-0.1-0.5-0.5-1-1-1c-0.6,0.1-1.1,0.6-1,1.2C50.3,90.2,50.7,90.6,51.3,90.7z"
		/>
	<path class="st3" d="M51.8,90.5c2.6-1.4,4.6-3.4,6-6c0.3-0.6,0-1.2-0.5-1.5c-0.5-0.2-1.1-0.1-1.4,0.4c-0.3,0.6-0.6,1.1-1,1.7
		c0,0-0.2,0.3,0,0.1l-0.1,0.2l-0.3,0.4c-0.2,0.2-0.4,0.5-0.7,0.7S53.3,86.8,53,87l-0.3,0.3c0,0-0.3,0.2-0.1,0l-0.2,0.2
		c-0.5,0.4-1.1,0.7-1.7,1c-0.5,0.3-0.7,1-0.4,1.5c0.3,0.5,1,0.7,1.5,0.4L51.8,90.5z"/>
	<path class="st3" d="M51.8,90.8c2.8-1.1,5.4-2.5,7.7-4.3c2.2-1.7,4.5-3.8,4.8-6.7c0.1-0.6-0.4-1.2-1-1.2c-0.6-0.1-1.2,0.4-1.2,1
		c0,0.1,0,0.1,0,0.2c-0.2,1.1-0.7,2-1.5,2.8c-0.8,0.9-1.8,1.7-2.8,2.5c-2,1.5-4.3,2.8-6.6,3.7c-0.6,0.2-0.9,0.8-0.8,1.4
		C50.6,90.7,51.2,91,51.8,90.8L51.8,90.8z"/>
	<path class="st3" d="M61.9,79.6c-1.3-0.3-2.6-0.3-3.9,0c-0.6,0.2-0.9,0.8-0.8,1.4c0,0,0,0,0,0c0.2,0.6,0.8,0.9,1.4,0.8
		c0.3-0.1,0.5-0.1,0.8-0.2h-0.3c0.6-0.1,1.2-0.1,1.8,0h-0.3c0.2,0,0.5,0.1,0.7,0.1c0.6,0.2,1.2-0.1,1.5-0.7c0.2-0.6-0.1-1.2-0.7-1.5
		C62,79.6,61.9,79.6,61.9,79.6L61.9,79.6z"/>
	<path class="st3" d="M61.2,68.3c-0.1,0.6-0.1,1.2-0.1,1.8c0.1,0.6,0.2,1.2,0.4,1.7c0.4,1,0.9,2,1.5,3c0.4,0.7,1.3,1,2,0.6
		c0.7-0.4,1-1.3,0.6-2c0,0,0-0.1-0.1-0.1c-0.3-0.6-0.7-1.2-1-1.9v-0.1l0,0v-0.1c-0.1-0.2-0.1-0.4-0.2-0.6c-0.1-0.3-0.2-0.7-0.2-1
		v0.4c-0.1-0.4-0.1-0.9,0-1.3l-0.1,0.4v-0.1c0.1-0.4,0-0.8-0.1-1.2c-0.2-0.3-0.5-0.6-0.9-0.7c-0.4-0.1-0.8-0.1-1.2,0.2
		C61.6,67.6,61.4,67.9,61.2,68.3L61.2,68.3z"/>
	<path class="st3" d="M75.8,87.3c-2.1-1.5-4.3-3-6.2-4.6c-1.8-1.3-3.1-3.2-3.9-5.3c-0.2-0.8-1-1.3-1.8-1.1s-1.3,1-1.1,1.8
		c0.9,2.6,2.4,4.8,4.5,6.5c2.2,1.9,4.7,3.5,7,5.2c0.7,0.4,1.6,0.2,2.1-0.5C76.7,88.7,76.5,87.8,75.8,87.3
		C75.7,87.4,75.7,87.4,75.8,87.3z"/>
	<path class="st3" d="M58.1,85.9c0.3-0.8,0.7-1.5,1.1-2.2c0.5-0.8,1-1.5,1.4-2.3c0.4-0.8,0.7-1.7,0.9-2.6c0.1-0.2,0.1-0.5,0.2-0.7
		c-0.1,0.2,0.2-0.2,0.2-0.2s0.2-0.2,0.2-0.2s-0.1,0.1,0.1,0c-0.1,0-0.1,0-0.2,0l-1.5-1.5c-0.1,1-0.1,1.9,0.2,2.8
		c0.6,0.9,1.8,1.3,2.8,0.9c1.6-0.5,2.5-2.3,2-3.9c-0.1-0.2-0.2-0.4-0.3-0.6c-0.4-0.7-1.4-0.9-2.1-0.5c-0.4,0.3-0.7,0.7-0.7,1.3
		c0.1,1.5,1.2,2.5,2,3.6l2.6,3.2c0.6,0.6,1.5,0.6,2.1,0c0.6-0.6,0.6-1.5,0-2.1L67,78l-1-1.2c-0.1-0.1-0.3-0.4-0.4-0.5
		s-0.2-0.4-0.2-0.2l-2.8,0.8c0.1,0.2,0.1,0.2,0,0.1s0-0.1,0,0.1c0.1-0.2,0.1,0,0,0c0.2-0.1-0.2,0-0.1,0c0,0,0.1,0,0.1,0
		c-0.3,0-0.2,0,0.1,0l0.5,0.5c0.1,0.2,0.1,0.5,0.1,0.1c0-0.2,0-0.4,0-0.6v-1c0-0.8-0.7-1.5-1.5-1.5c-1.2,0.1-2.2,0.8-2.8,1.8
		c-0.4,1-0.8,2-1,3c-0.4,0.9-0.9,1.8-1.5,2.6c-0.6,1-1.1,2-1.5,3.1c-0.2,0.8,0.2,1.6,1,1.8C57,87.2,57.8,86.7,58.1,85.9L58.1,85.9z"
		/>
	<path class="st3" d="M75.1,87.5c-4.3-1.2-8-3.8-10.6-7.5c-0.4-0.7-1.3-0.9-2.1-0.5c-0.7,0.4-0.9,1.4-0.5,2.1
		c2.9,4.3,7.3,7.5,12.4,8.8c0.8,0.2,1.6-0.3,1.8-1.1C76.3,88.5,75.9,87.7,75.1,87.5L75.1,87.5z"/>
</g>
</svg>
